<svg width="18" height="18" viewBox="0 0 18 18" fill="none" xmlns="http://www.w3.org/2000/svg">
<path d="M4.8009 13.8953C5.94674 15.0411 7.32694 15.614 8.94153 15.614C10.5561 15.614 11.9233 15.0411 13.0431 13.8953C14.1889 12.7494 14.7618 11.3692 14.7618 9.75464C14.7618 8.14006 14.1889 6.77287 13.0431 5.65308C11.9233 4.50724 10.5561 3.93433 8.94153 3.93433C7.32694 3.93433 5.94674 4.50724 4.8009 5.65308C3.68111 6.77287 3.12122 8.14006 3.12122 9.75464C3.12122 11.3692 3.68111 12.7494 4.8009 13.8953ZM3.62903 4.4812C5.08736 2.99683 6.85819 2.25464 8.94153 2.25464C11.0249 2.25464 12.7957 2.99683 14.254 4.4812C15.7124 5.93953 16.4415 7.69735 16.4415 9.75464C16.4415 11.8119 15.7124 13.5828 14.254 15.0671C12.7957 16.5255 11.0249 17.2546 8.94153 17.2546C6.85819 17.2546 5.08736 16.5255 3.62903 15.0671C2.17069 13.5828 1.44153 11.8119 1.44153 9.75464C1.44153 7.69735 2.17069 5.93953 3.62903 4.4812ZM9.37122 5.61401V9.98901L12.6915 11.9421L12.0665 12.9578L8.12122 10.614V5.61401H9.37122ZM5.50403 1.74683L1.6759 4.94995L0.621216 3.69995L4.44934 0.496826L5.50403 1.74683ZM17.2618 3.69995L16.2072 4.98901L12.379 1.74683L13.4337 0.496826L17.2618 3.69995Z" fill="#43CC74"/>
</svg>
