<svg width="85" height="68" viewBox="0 0 85 68" fill="none" xmlns="http://www.w3.org/2000/svg">
<path d="M82.875 59.5H72.25V15.0675C72.25 11.447 69.3905 8.49989 65.875 8.49989H51V16.9999H63.75V68H82.875C84.0491 68 85 67.0491 85 65.875V61.625C85 60.4509 84.0491 59.5 82.875 59.5ZM41.4694 0.134011L15.9694 6.74012C14.0768 7.2302 12.75 8.99129 12.75 11.0127V59.5H2.125C0.950937 59.5 0 60.4509 0 61.625V65.875C0 67.0491 0.950937 68 2.125 68H46.75V4.4066C46.75 1.5405 44.1522 -0.561927 41.4694 0.134011V0.134011ZM35.0625 38.2499C33.3027 38.2499 31.875 36.3467 31.875 33.9999C31.875 31.6531 33.3027 29.7499 35.0625 29.7499C36.8223 29.7499 38.25 31.6531 38.25 33.9999C38.25 36.3467 36.8223 38.2499 35.0625 38.2499Z" fill="#18A0FB"/>
</svg>
