<svg width="25" height="30" viewBox="0 0 25 30" fill="none" xmlns="http://www.w3.org/2000/svg">
<path d="M3.125 3.75H8.33333C8.33333 1.68164 10.2018 0 12.5 0C14.7982 0 16.6667 1.68164 16.6667 3.75H21.875C23.6003 3.75 25 5.00977 25 6.5625V27.1875C25 28.7402 23.6003 30 21.875 30H3.125C1.39974 30 0 28.7402 0 27.1875V6.5625C0 5.00977 1.39974 3.75 3.125 3.75ZM12.5 2.34375C11.6341 2.34375 10.9375 2.9707 10.9375 3.75C10.9375 4.5293 11.6341 5.15625 12.5 5.15625C13.3659 5.15625 14.0625 4.5293 14.0625 3.75C14.0625 2.9707 13.3659 2.34375 12.5 2.34375ZM3.125 26.8359C3.125 27.0293 3.30078 27.1875 3.51562 27.1875H21.4844C21.6992 27.1875 21.875 27.0293 21.875 26.8359V6.91406C21.875 6.7207 21.6992 6.5625 21.4844 6.5625H18.75V8.67188C18.75 9.05859 18.3984 9.375 17.9688 9.375H7.03125C6.60156 9.375 6.25 9.05859 6.25 8.67188V6.5625H3.51562C3.30078 6.5625 3.125 6.7207 3.125 6.91406V26.8359Z" fill="#18A0FB"/>
</svg>
