<svg width="28" height="30" viewBox="0 0 28 30" fill="none" xmlns="http://www.w3.org/2000/svg">
<path d="M27.5013 18.6048L25.002 17.1169C25.2543 15.7137 25.2543 14.2742 25.002 12.871L27.5013 11.3831C27.7888 11.2137 27.9179 10.8629 27.824 10.5363C27.1728 8.38309 26.0639 6.43552 24.6148 4.81455C24.3919 4.56657 24.0281 4.50609 23.7465 4.67544L21.2472 6.16334C20.1971 5.23189 18.9885 4.51214 17.6802 4.04036V1.07062C17.6802 0.731909 17.4514 0.435539 17.1287 0.362959C14.9756 -0.133007 12.7696 -0.108814 10.7221 0.362959C10.3994 0.435539 10.1706 0.731909 10.1706 1.07062V4.04641C8.86814 4.52423 7.65956 5.24399 6.60353 6.16939L4.1101 4.68149C3.82263 4.51214 3.46475 4.56657 3.24181 4.8206C1.79269 6.43552 0.68385 8.38309 0.0326268 10.5424C-0.06711 10.869 0.0678281 11.2198 0.355305 11.3891L2.85459 12.877C2.60232 14.2802 2.60232 15.7198 2.85459 17.123L0.355305 18.6109C0.0678281 18.7802 -0.0612432 19.131 0.0326268 19.4576C0.68385 21.6109 1.79269 23.5584 3.24181 25.1794C3.46475 25.4274 3.82849 25.4879 4.1101 25.3185L6.60939 23.8306C7.65956 24.7621 8.86814 25.4818 10.1765 25.9536V28.9294C10.1765 29.2681 10.4053 29.5645 10.7279 29.637C12.8811 30.133 15.087 30.1088 17.1346 29.637C17.4572 29.5645 17.6861 29.2681 17.6861 28.9294V25.9536C18.9885 25.4758 20.1971 24.756 21.2531 23.8306L23.7524 25.3185C24.0399 25.4879 24.3978 25.4334 24.6207 25.1794C26.0698 23.5645 27.1787 21.6169 27.8299 19.4576C27.9179 19.125 27.7888 18.7742 27.5013 18.6048ZM13.9254 19.8326C11.3381 19.8326 9.23189 17.6613 9.23189 14.994C9.23189 12.3266 11.3381 10.1553 13.9254 10.1553C16.5127 10.1553 18.6189 12.3266 18.6189 14.994C18.6189 17.6613 16.5127 19.8326 13.9254 19.8326Z" fill="#495057"/>
</svg>
