<svg width="24" height="24" viewBox="0 0 24 24" fill="none" xmlns="http://www.w3.org/2000/svg">
<rect x="0.5" y="0.5" width="23" height="23" rx="4.5" fill="white" stroke="#9D9D9D"/>
<path d="M6.78571 17.7812C6.78571 18.1045 6.90988 18.4145 7.13091 18.643C7.35193 18.8716 7.65171 19 7.96429 19H15.0357C15.3483 19 15.6481 18.8716 15.8691 18.643C16.0901 18.4145 16.2143 18.1045 16.2143 17.7812V9.25H6.78571V17.7812ZM13.4643 11.2813C13.4643 11.1735 13.5057 11.0702 13.5794 10.994C13.653 10.9178 13.753 10.875 13.8571 10.875C13.9613 10.875 14.0613 10.9178 14.1349 10.994C14.2086 11.0702 14.25 11.1735 14.25 11.2813V16.9688C14.25 17.0765 14.2086 17.1798 14.1349 17.256C14.0613 17.3322 13.9613 17.375 13.8571 17.375C13.753 17.375 13.653 17.3322 13.5794 17.256C13.5057 17.1798 13.4643 17.0765 13.4643 16.9688V11.2813ZM11.1071 11.2813C11.1071 11.1735 11.1485 11.0702 11.2222 10.994C11.2959 10.9178 11.3958 10.875 11.5 10.875C11.6042 10.875 11.7041 10.9178 11.7778 10.994C11.8515 11.0702 11.8929 11.1735 11.8929 11.2813V16.9688C11.8929 17.0765 11.8515 17.1798 11.7778 17.256C11.7041 17.3322 11.6042 17.375 11.5 17.375C11.3958 17.375 11.2959 17.3322 11.2222 17.256C11.1485 17.1798 11.1071 17.0765 11.1071 16.9688V11.2813ZM8.75 11.2813C8.75 11.1735 8.79139 11.0702 8.86507 10.994C8.93874 10.9178 9.03866 10.875 9.14286 10.875C9.24705 10.875 9.34697 10.9178 9.42065 10.994C9.49432 11.0702 9.53571 11.1735 9.53571 11.2813V16.9688C9.53571 17.0765 9.49432 17.1798 9.42065 17.256C9.34697 17.3322 9.24705 17.375 9.14286 17.375C9.03866 17.375 8.93874 17.3322 8.86507 17.256C8.79139 17.1798 8.75 17.0765 8.75 16.9688V11.2813ZM16.6071 6.8125H13.6607L13.4299 6.3377C13.381 6.23619 13.3057 6.15081 13.2124 6.09115C13.1192 6.03149 13.0117 5.99992 12.902 6H10.0955C9.98612 5.99957 9.8788 6.03102 9.78587 6.09074C9.69294 6.15047 9.61815 6.23605 9.57009 6.3377L9.33929 6.8125H6.39286C6.28866 6.8125 6.18874 6.85531 6.11507 6.93149C6.04139 7.00768 6 7.11101 6 7.21875V8.03125C6 8.139 6.04139 8.24233 6.11507 8.31852C6.18874 8.3947 6.28866 8.4375 6.39286 8.4375H16.6071C16.7113 8.4375 16.8113 8.3947 16.8849 8.31852C16.9586 8.24233 17 8.139 17 8.03125V7.21875C17 7.11101 16.9586 7.00768 16.8849 6.93149C16.8113 6.85531 16.7113 6.8125 16.6071 6.8125Z" fill="#9D9D9D"/>
</svg>
