<svg width="57" height="57" viewBox="0 0 57 57" fill="none" xmlns="http://www.w3.org/2000/svg">
<path d="M39.7358 38.8796L39.6237 32.5712C39.6115 31.8847 39.045 31.3182 38.3585 31.306L32.0547 31.194C31.3682 31.1818 30.8216 31.7284 30.8338 32.4149L30.9459 38.7234C30.9581 39.4099 31.5245 39.9763 32.211 39.9885L38.5149 40.1006C39.2014 40.1128 39.748 39.5662 39.7358 38.8796Z" stroke="white" stroke-width="2" stroke-linecap="round" stroke-linejoin="round"/>
<path d="M25.6713 38.6316L25.5592 32.3231C25.547 31.6366 24.9806 31.0702 24.2941 31.058L17.9903 30.9459C17.3037 30.9337 16.7571 31.4804 16.7693 32.1669L16.8814 38.4753C16.8937 39.1619 17.4601 39.7283 18.1466 39.7405L24.4504 39.8525C25.1369 39.8647 25.6836 39.3181 25.6713 38.6316Z" stroke="white" stroke-width="2" stroke-linecap="round" stroke-linejoin="round"/>
<path d="M39.4956 24.8269L39.3834 18.5184C39.3712 17.8319 38.8048 17.2655 38.1183 17.2533L31.8145 17.1412C31.128 17.129 30.5813 17.6757 30.5935 18.3622L30.7057 24.6707C30.7179 25.3572 31.2843 25.9236 31.9708 25.9358L38.2746 26.0479C38.9611 26.0601 39.5078 25.5134 39.4956 24.8269Z" stroke="white" stroke-width="2" stroke-linecap="round" stroke-linejoin="round"/>
<path d="M25.4311 24.5779L25.319 18.2694C25.3068 17.5829 24.7403 17.0165 24.0538 17.0043L17.75 16.8922C17.0635 16.88 16.5169 17.4266 16.5291 18.1132L16.6412 24.4216C16.6534 25.1081 17.2198 25.6746 17.9064 25.6868L24.2102 25.7988C24.8967 25.811 25.4433 25.2644 25.4311 24.5779Z" stroke="white" stroke-width="2" stroke-linecap="round" stroke-linejoin="round"/>
</svg>
