<svg width="16" height="18" viewBox="0 0 16 18" fill="none" xmlns="http://www.w3.org/2000/svg">
<path d="M7.41406 3.94531C7.57031 4.10156 7.76562 4.17969 8 4.17969C8.23438 4.17969 8.42969 4.10156 8.58594 3.94531C8.74219 3.76302 8.82031 3.55469 8.82031 3.32031C8.82031 3.08594 8.74219 2.89062 8.58594 2.73438C8.42969 2.57812 8.23438 2.5 8 2.5C7.76562 2.5 7.57031 2.57812 7.41406 2.73438C7.25781 2.89062 7.17969 3.08594 7.17969 3.32031C7.17969 3.55469 7.25781 3.76302 7.41406 3.94531ZM8.82031 11.6797V6.67969H7.17969V11.6797H8.82031ZM8.82031 15V13.3203H7.17969V15H8.82031ZM13.8203 2.5C14.263 2.5 14.6536 2.66927 14.9922 3.00781C15.3307 3.34635 15.5 3.73698 15.5 4.17969V15.8203C15.5 16.263 15.3307 16.6536 14.9922 16.9922C14.6536 17.3307 14.263 17.5 13.8203 17.5H2.17969C1.73698 17.5 1.34635 17.3307 1.00781 16.9922C0.669271 16.6536 0.5 16.263 0.5 15.8203V4.17969C0.5 3.73698 0.669271 3.34635 1.00781 3.00781C1.34635 2.66927 1.73698 2.5 2.17969 2.5H5.65625C5.83854 2.00521 6.13802 1.60156 6.55469 1.28906C6.97135 0.976562 7.45312 0.820312 8 0.820312C8.54688 0.820312 9.02865 0.976562 9.44531 1.28906C9.86198 1.60156 10.1615 2.00521 10.3438 2.5H13.8203Z" fill="#FF5F5F"/>
</svg>
