<svg width="26" height="25" viewBox="0 0 26 25" fill="none" xmlns="http://www.w3.org/2000/svg">
<path d="M24.1429 9.82143H15.7857V1.78571C15.7857 0.799665 14.9541 0 13.9286 0H12.0714C11.0459 0 10.2143 0.799665 10.2143 1.78571V9.82143H1.85714C0.831652 9.82143 0 10.6211 0 11.6071V13.3929C0 14.3789 0.831652 15.1786 1.85714 15.1786H10.2143V23.2143C10.2143 24.2003 11.0459 25 12.0714 25H13.9286C14.9541 25 15.7857 24.2003 15.7857 23.2143V15.1786H24.1429C25.1683 15.1786 26 14.3789 26 13.3929V11.6071C26 10.6211 25.1683 9.82143 24.1429 9.82143Z" fill="#9D9D9D"/>
</svg>
