<svg width="23" height="23" viewBox="0 0 23 23" fill="none" xmlns="http://www.w3.org/2000/svg">
<path d="M22.6872 19.287L18.2082 14.9434C18.006 14.7474 17.732 14.6384 17.4444 14.6384H16.7122C17.9521 13.1005 18.6889 11.1662 18.6889 9.06189C18.6889 4.05607 14.5063 0 9.34443 0C4.18253 0 0 4.05607 0 9.06189C0 14.0677 4.18253 18.1238 9.34443 18.1238C11.5143 18.1238 13.509 17.4093 15.0949 16.2068V16.917C15.0949 17.1958 15.2072 17.4616 15.4093 17.6576L19.8884 22.0012C20.3107 22.4108 20.9935 22.4108 21.4113 22.0012L22.6827 20.7683C23.105 20.3588 23.105 19.6965 22.6872 19.287ZM9.34443 14.6384C6.16822 14.6384 3.59401 12.1464 3.59401 9.06189C3.59401 5.98172 6.16373 3.48534 9.34443 3.48534C12.5206 3.48534 15.0949 5.97736 15.0949 9.06189C15.0949 12.1421 12.5251 14.6384 9.34443 14.6384Z" fill="#6C6C6C"/>
</svg>
