<svg xmlns="http://www.w3.org/2000/svg" viewBox="0 0 991.5 558.5"><defs><style>.cls-1{fill:#f4a261;}.cls-2{fill:#e76f51;}.cls-3{fill:#2a9d8f;}.cls-4{fill:#3a3a3a;}.cls-5{fill:#2ee8a4;}.cls-6{fill:#fff;}.cls-7{fill:#21f476;}.cls-8{fill:none;stroke-linecap:round;stroke-dasharray:12 6;}.cls-8,.cls-9{stroke:#3a3a3a;stroke-miterlimit:10;stroke-width:4px;}.cls-9{fill:#44d163;}</style></defs><title>erro404mfs</title><g id="Camada_6" data-name="Camada 6"><polygon class="cls-1" points="271.7 544 400.7 544 533.7 544 533.7 484 470.7 484 271.7 484 271.7 544"/><path class="cls-2" d="M395,945V881H327V598A135.1,135.1,0,0,1,438.8,465H359c-73.3,0-133,59.7-133,133v409l236-1.3V945Z" transform="translate(-194.3 -461)"/><path class="cls-1" d="M462,467A131.1,131.1,0,0,0,331,598V877H593V594.7a6.6,6.6,0,0,1-.1-1.4,14.1,14.1,0,0,0-.1-2,10.3,10.3,0,0,0-.1-1.7,7.6,7.6,0,0,0-.1-1.5c0-.7-.1-1.4-.1-2.1s-.1-.8-.2-1.2a16.4,16.4,0,0,0-.2-2.3c0-.3-.1-.6-.1-.9a25.1,25.1,0,0,0-.4-2.7v-.4A131.3,131.3,0,0,0,462,467Zm68,346H395V596.5A67.5,67.5,0,0,1,462.5,529h0A67.5,67.5,0,0,1,530,596.5Z" transform="translate(-194.3 -461)"/><polygon class="cls-1" points="267.7 480 466.7 480 466.7 420 402.7 420 204.7 420 204.7 480 267.7 480"/><path class="cls-3" d="M462.5,533A63.6,63.6,0,0,0,399,596.5V809H526V596.5A63.6,63.6,0,0,0,462.5,533Z" transform="translate(-194.3 -461)"/><path class="cls-4" d="M593,598v0Z" transform="translate(-194.3 -461)"/><path class="cls-4" d="M592,581.6c0,.3.1.6.1.9S592,581.9,592,581.6Z" transform="translate(-194.3 -461)"/><path class="cls-4" d="M592.8,591.3a14.1,14.1,0,0,1,.1,2A14.1,14.1,0,0,0,592.8,591.3Z" transform="translate(-194.3 -461)"/><path class="cls-4" d="M592.6,588.1a7.6,7.6,0,0,1,.1,1.5A7.6,7.6,0,0,0,592.6,588.1Z" transform="translate(-194.3 -461)"/><path class="cls-4" d="M592.3,584.8c.1.4.1.8.2,1.2S592.4,585.2,592.3,584.8Z" transform="translate(-194.3 -461)"/><path class="cls-4" d="M591.6,578.5v0Z" transform="translate(-194.3 -461)"/><path class="cls-4" d="M592.9,593.3a6.6,6.6,0,0,0,.1,1.4A6.6,6.6,0,0,1,592.9,593.3Z" transform="translate(-194.3 -461)"/><path class="cls-4" d="M592.7,589.6a10.3,10.3,0,0,1,.1,1.7A10.3,10.3,0,0,0,592.7,589.6Z" transform="translate(-194.3 -461)"/><rect class="cls-4" x="398.7" y="406.8" width="4" height="9.21"/><path class="cls-4" d="M592.1,582.5a16.4,16.4,0,0,1,.2,2.3A16.4,16.4,0,0,0,592.1,582.5Z" transform="translate(-194.3 -461)"/><path class="cls-4" d="M592.5,586c0,.7.1,1.4.1,2.1S592.5,586.7,592.5,586Z" transform="translate(-194.3 -461)"/><path class="cls-4" d="M591.6,578.9a25.1,25.1,0,0,1,.4,2.7A25.1,25.1,0,0,0,591.6,578.9Z" transform="translate(-194.3 -461)"/><path class="cls-4" d="M597,598v0Z" transform="translate(-194.3 -461)"/><path class="cls-4" d="M462.5,529h0A67.5,67.5,0,0,0,395,596.5V813H530V596.5A67.5,67.5,0,0,0,462.5,529ZM526,809H399V596.5a63.5,63.5,0,0,1,127,0Z" transform="translate(-194.3 -461)"/><polygon class="cls-4" points="466.7 420 466.7 480 470.7 480 470.7 416 402.7 416 402.7 420 466.7 420"/><path class="cls-5" d="M496.9,722.6h0a14.9,14.9,0,0,0-20.7,4l-27.5,40.7-51.2,16.9v25.5l21.8-.5,42.9-14.9a15.1,15.1,0,0,0,4.9-2.9,13.8,13.8,0,0,0,4-4l29.8-44.1A14.8,14.8,0,0,0,496.9,722.6Z" transform="translate(-194.3 -461)"/><path class="cls-4" d="M395,812.3V782.4l52.1-17.2,27.1-40a17.5,17.5,0,0,1,24.1-4.7h0a17.3,17.3,0,0,1,7.4,11.2,17.1,17.1,0,0,1-2.7,13l-29.8,44.1a18.3,18.3,0,0,1-4.6,4.6,18.8,18.8,0,0,1-5.6,3.3l-43.2,15Zm5-26.3v21.2l18.9-.5,42.5-14.8a13.4,13.4,0,0,0,4-2.3l.3-.2A13.3,13.3,0,0,0,469,786l29.9-44.1a12.6,12.6,0,0,0,1.9-9.3,12.4,12.4,0,0,0-5.3-7.9h0a12.3,12.3,0,0,0-17.2,3.3l-28,41.4Z" transform="translate(-194.3 -461)"/><circle class="cls-6" cx="356.1" cy="253.4" r="14.9"/><path class="cls-4" d="M538.1,727.1a17.6,17.6,0,1,1,25-.5A17.7,17.7,0,0,1,538.1,727.1Zm20.7-21.5a12.2,12.2,0,1,0,.4,17.2A12.3,12.3,0,0,0,558.8,705.6Z" transform="translate(-194.3 -461)"/><path class="cls-5" d="M475,671l.9,45.8h0a12.3,12.3,0,0,0,12.6,12h0l45.8-.9a12.4,12.4,0,0,0,12.1-12.6h0a12.4,12.4,0,0,0-12.6-12l-33.6.7-.7-33.5A12.4,12.4,0,0,0,487,658.4h0A12.3,12.3,0,0,0,475,671Z" transform="translate(-194.3 -461)"/><path class="cls-4" d="M477.9,727.4a15.1,15.1,0,0,1-4.7-10.5l-1-45.9a15.2,15.2,0,0,1,14.7-15.3,14.8,14.8,0,0,1,10.7,4.2,15,15,0,0,1,4.6,10.5l.7,30.9,30.9-.7a14.7,14.7,0,0,1,10.6,4.2,14.9,14.9,0,0,1,4.7,10.5,15.1,15.1,0,0,1-14.7,15.3l-45.9,1A15,15,0,0,1,477.9,727.4Zm16-63.6a9.8,9.8,0,0,0-6.9-2.7,9.7,9.7,0,0,0-9.3,9.8l.9,45.9a10.1,10.1,0,0,0,3,6.7,9.7,9.7,0,0,0,6.8,2.6l45.9-.9a9.5,9.5,0,0,0,9.3-9.8,9.4,9.4,0,0,0-2.9-6.7,9.8,9.8,0,0,0-6.8-2.7l-36.3.8-.8-36.3A9.6,9.6,0,0,0,493.9,663.8Z" transform="translate(-194.3 -461)"/><circle class="cls-4" cx="282" cy="281.5" r="20.5"/><path class="cls-5" d="M521.1,725.9a17.5,17.5,0,0,0-24.6-3.1h0a17.5,17.5,0,0,0-3.1,24.6l35.5,45.5-7.2,58.3A17.6,17.6,0,0,0,537,870.8h0a17.5,17.5,0,0,0,19.5-15.3l8-64.3a13.4,13.4,0,0,0,.1-2A17.3,17.3,0,0,0,561,777Z" transform="translate(-194.3 -461)"/><path class="cls-4" d="M523.1,865.9a19.8,19.8,0,0,1-4.2-15l7.1-57.2-34.8-44.5a20.4,20.4,0,0,1,32.1-25.1l39.9,51.1a20.8,20.8,0,0,1,4.2,14.2,16.2,16.2,0,0,1-.1,2.2l-8,64.3a20.3,20.3,0,0,1-36.2,10Zm-4.2-138.3a14.7,14.7,0,1,0-23.2,18.1l36.1,46.4-7.3,59.5a14.5,14.5,0,0,0,3,10.8,14.7,14.7,0,0,0,26.2-7.2l8-64.3a9.7,9.7,0,0,0,.1-1.7V789a14.7,14.7,0,0,0-3.1-10.3Z" transform="translate(-194.3 -461)"/><path class="cls-4" d="M527.8,794.3a2.8,2.8,0,0,1-.3-1.3,2.9,2.9,0,0,1,2.8-2.8h9.2a2.8,2.8,0,0,1,2.8,2.8,2.7,2.7,0,0,1-2.8,2.8h-9.2A2.7,2.7,0,0,1,527.8,794.3Z" transform="translate(-194.3 -461)"/><path class="cls-6" d="M521.5,861.7c-4.8,5.5-3.7,16.2-3.7,16.2l83.8.5c1.2-20.3-25.8-17.6-25.8-17.6-8.4-9-27.5-17.3-27.5-17.3Z" transform="translate(-194.3 -461)"/><path class="cls-4" d="M604.2,881.2l-88.9-.5-.3-2.5c0-.5-1.1-11.9,4.4-18.3l.2-.3L548,840.3l1.4.6c.8.3,18.5,8.1,27.5,17,4-.2,15.7,0,22.5,6.5,3.6,3.6,5.3,8.3,5,14.1Zm-83.7-6.1,78.2.5a10.3,10.3,0,0,0-3.2-7.1c-6.3-6.1-19.3-4.9-19.4-4.9h-1.4l-1-1c-6.6-7.1-20.6-14-25.1-16l-25.2,17.1C521.1,866.8,520.5,871.8,520.5,875.1Z" transform="translate(-194.3 -461)"/><path class="cls-4" d="M555,862.4a2.5,2.5,0,0,1-2.1-1,2.8,2.8,0,0,1,.3-4l8.4-7.2a2.8,2.8,0,0,1,4,.3,2.7,2.7,0,0,1-.3,3.9l-8.5,7.3A2.6,2.6,0,0,1,555,862.4Z" transform="translate(-194.3 -461)"/><path class="cls-6" d="M509.5,588.6h2.7A24.8,24.8,0,0,1,537,613.5V628a24.8,24.8,0,0,1-24.8,24.8H492.1a7.5,7.5,0,0,1-7.5-7.5V613.5a24.8,24.8,0,0,1,24.8-24.8Z" transform="translate(-32.9 -564.2) rotate(13.7)"/><path class="cls-4" d="M502.5,654.7l-28.1-6.9,9.6-39.7a29,29,0,0,1,56.4,13.7l-2.8,11.6A29.1,29.1,0,0,1,502.5,654.7Zm-21.3-11,22.7,5.5a23.3,23.3,0,0,0,28.2-17.1l2.8-11.6a23.4,23.4,0,0,0-45.4-11Z" transform="translate(-194.3 -461)"/><path class="cls-5" d="M537.6,702.2a39.2,39.2,0,0,0-28.8-47.4l-31.4-7.6-9.8,40.1-5.7,23.4-4.3,17.8v.3a22.3,22.3,0,0,0,41.3,13.9l31.5-5.2Z" transform="translate(-194.3 -461)"/><path class="cls-4" d="M473.9,755.5a25,25,0,0,1-19.2-27v-.4l20.6-84.3,34,8.3a42,42,0,0,1,30.9,50.7l-7.7,37.1-32.1,5.3A24.7,24.7,0,0,1,473.9,755.5Zm-13.6-26.2a19.5,19.5,0,0,0,36.1,11.9l.7-1.1,30.8-5.1,7-33.5a36.6,36.6,0,0,0-26.8-44l-28.6-7Zm80-26.5Z" transform="translate(-194.3 -461)"/><circle class="cls-6" cx="286.8" cy="286.7" r="15.5"/><path class="cls-4" d="M483.7,765.8a14.6,14.6,0,0,1-5.1,0A18.1,18.1,0,0,1,463,745.3a18.4,18.4,0,0,1,20.6-15.7,18.1,18.1,0,0,1,12,7.1,17.8,17.8,0,0,1,3.6,13.5h0a18.3,18.3,0,0,1-7.1,12.1A17.8,17.8,0,0,1,483.7,765.8Zm-4.4-30.6a12.7,12.7,0,0,0-8.3,20.2,12.8,12.8,0,0,0,8.4,4.9,12.5,12.5,0,0,0,9.3-2.5,12.2,12.2,0,0,0,4.9-8.3h0a12.6,12.6,0,0,0-2.4-9.4,12.8,12.8,0,0,0-8.4-4.9A13.7,13.7,0,0,0,479.3,735.2Z" transform="translate(-194.3 -461)"/><path class="cls-5" d="M474.3,661.1l-37.8,28.7h0a12.9,12.9,0,0,0-2.5,17.9h0l28.8,37.8a12.7,12.7,0,0,0,17.8,2.5h0a12.9,12.9,0,0,0,2.5-17.9L462,702.4l27.7-21a12.9,12.9,0,0,0,2.5-17.9h0A12.8,12.8,0,0,0,474.3,661.1Z" transform="translate(-194.3 -461)"/><path class="cls-4" d="M475.1,753.2a15.5,15.5,0,0,1-14.6-6l-28.7-37.8a15.3,15.3,0,0,1-3-11.5,15.1,15.1,0,0,1,6-10.3l37.8-28.8h0a15.7,15.7,0,0,1,11.5-3,15.5,15.5,0,0,1,13.3,17.5,15.1,15.1,0,0,1-6,10.3L465.9,703l19.4,25.4a15.6,15.6,0,0,1-3,21.8A14.3,14.3,0,0,1,475.1,753.2Zm5.5-91.8a11.5,11.5,0,0,0-4.6,1.9h0l-37.8,28.8a9.6,9.6,0,0,0-3.8,6.5,9.7,9.7,0,0,0,1.9,7.4L465,743.8a9.9,9.9,0,0,0,13.9,1.9,9.6,9.6,0,0,0,3.8-6.5,9.7,9.7,0,0,0-1.9-7.4l-22.7-29.9L488,679.1a10.1,10.1,0,0,0,3.9-6.5,10.2,10.2,0,0,0-2-7.4,9.7,9.7,0,0,0-6.5-3.8A13.1,13.1,0,0,0,480.6,661.4Zm-6.3-.3Z" transform="translate(-194.3 -461)"/><polyline class="cls-4" points="200.7 320 236.7 351 200.7 351 200.7 319"/><path class="cls-4" d="M870.5,1006.5H732V941H661L399,923V881H597v-4H331V598a131,131,0,0,1,259.7-24.7v.2l.9,5v.4a25.1,25.1,0,0,1,.4,2.7c0,.3.1.6.1.9a16.4,16.4,0,0,1,.2,2.3c.1.4.1.8.2,1.2s.1,1.4.1,2.1a7.6,7.6,0,0,1,.1,1.5,10.3,10.3,0,0,1,.1,1.7,14.1,14.1,0,0,1,.1,2,6.6,6.6,0,0,0,.1,1.4V598h0V866l4,1.8V594.5C595.1,520.6,534.4,461,460,461H359c-75.5,0-137,61.5-137,137v408.5h-5a6.5,6.5,0,0,0,0,13H870.5a6.5,6.5,0,0,0,0-13Zm-408.5-.8-145.2.8H226V598c0-73.3,59.7-133,133-133h79.8A135.1,135.1,0,0,0,327,598V881h68v64h67Zm266-.7L466,987V945H728Z" transform="translate(-194.3 -461)"/><path class="cls-6" d="M534.1,583.4a4.1,4.1,0,0,1-1.6-2.1,3.6,3.6,0,0,1,.5-2.8,3.4,3.4,0,0,1,2.2-1.5,3.3,3.3,0,0,1,2.7.5,3.2,3.2,0,0,1,1.5,2.1,3.1,3.1,0,0,1-.5,2.6,3.1,3.1,0,0,1-2.2,1.7A4.7,4.7,0,0,1,534.1,583.4Zm4-27.7a8.5,8.5,0,0,1,3.6-3.1,11,11,0,0,1,5.5-.9,12.4,12.4,0,0,1,6.2,2.1,13.7,13.7,0,0,1,4.4,4.2,10.5,10.5,0,0,1,1.6,5,8.5,8.5,0,0,1-1.3,4.7,6.9,6.9,0,0,1-2.6,2.5,8.1,8.1,0,0,1-2.9,1.2l-5.3,1-1.8.4-1.1.4-.8.6a12.9,12.9,0,0,0-1.2,1.2,2.5,2.5,0,0,1-3.6.5,2.4,2.4,0,0,1-1.3-1.7,3.4,3.4,0,0,1,.5-2.5,9.4,9.4,0,0,1,2.3-2.5,11.1,11.1,0,0,1,2.7-1.3l3.7-.7,2.9-.5,1.7-.7a3.3,3.3,0,0,0,1.3-1.3,3.7,3.7,0,0,0,.5-3.4,4.7,4.7,0,0,0-2.3-2.9,4.8,4.8,0,0,0-3.9-1,11.8,11.8,0,0,0-3.8,2.2c-1.3,1.2-2.7,1.4-3.9.6a3.3,3.3,0,0,1-1.4-1.9A2.7,2.7,0,0,1,538.1,555.7Z" transform="translate(-194.3 -461)"/><path class="cls-6" d="M540.8,592.4a3.8,3.8,0,0,1-.5-2.6,3.3,3.3,0,0,1,1.7-2.2,3.4,3.4,0,0,1,2.6-.5,3.7,3.7,0,0,1,2.1,1.6,3.3,3.3,0,0,1,.5,2.7,3.2,3.2,0,0,1-1.6,2.2,3.3,3.3,0,0,1-2.7.4A3.7,3.7,0,0,1,540.8,592.4Zm11.7-10.2,9.1-6.5a36,36,0,0,1,3.9-2.6,4.2,4.2,0,0,1,3.1-.8,3.3,3.3,0,0,1,2.3,1.7,2.8,2.8,0,0,1,.3,3,9.5,9.5,0,0,1-3.1,2.7l-2.7,1.5-10.3,5.2a7.8,7.8,0,0,1-3.1,1,1.7,1.7,0,0,1-1.8-.9,1.5,1.5,0,0,1,0-2A9.8,9.8,0,0,1,552.5,582.2Z" transform="translate(-194.3 -461)"/><path class="cls-4" d="M824.2,742.8V719.5H761.6c-7.9,0-13.9-1.7-17.8-5.3s-5.9-8.5-5.9-14.6a16.1,16.1,0,0,1,.8-4.8,25.4,25.4,0,0,1,2.7-5.1,48,48,0,0,1,3.6-5.2c1.2-1.7,2.8-3.7,4.6-6.1l66.1-88.5c4.4-5.8,7.9-10.1,10.7-12.7a14.2,14.2,0,0,1,10.1-3.9c12.6,0,18.9,7.2,18.9,21.7v96.6h5.4c6.4,0,11.5.9,15.4,2.6s5.8,5.6,5.8,11.5-1.6,8.3-4.7,10.5-7.9,3.3-14.3,3.3h-7.6v23.3c0,6.4-1.4,11.1-4.2,14.2s-6.6,4.7-11.4,4.7a14.6,14.6,0,0,1-11.3-4.8C825.7,753.7,824.2,749,824.2,742.8Zm-53.6-51.2h53.6V619.1Z" transform="translate(-194.3 -461)"/><path class="cls-4" d="M1026.4,668.9c0,13.6-.8,25.4-2.5,35.2a82.8,82.8,0,0,1-9.2,26.7,61.5,61.5,0,0,1-22,22.7,58.1,58.1,0,0,1-30,8,57.1,57.1,0,0,1-34-10.8c-10-7.1-17.5-17-22.6-29.7a108.1,108.1,0,0,1-5.7-22.9,190.6,190.6,0,0,1-1.8-27.1,264.4,264.4,0,0,1,2-33.9,111.6,111.6,0,0,1,6.2-26c4.9-12,12.1-21.1,21.4-27.4s20.6-9.4,33.5-9.4a62.5,62.5,0,0,1,23.4,4.2,52.9,52.9,0,0,1,18.4,12.2,70.9,70.9,0,0,1,13.4,19.9C1023.2,624.3,1026.4,643.8,1026.4,668.9Zm-34.2-2.5c0-15.2-.9-27.7-2.7-37.4s-5-17-9.3-22-10.3-7.4-18-7.4c-10.9,0-18.6,5.6-22.9,16.6s-6.4,28.1-6.4,51.2c0,15.6.9,28.4,2.8,38.4s4.9,17.6,9.2,22.7,10.2,7.6,17.6,7.6,13.6-2.6,18-7.9,7.3-13,9.1-22.9S992.2,682.4,992.2,666.4Z" transform="translate(-194.3 -461)"/><path class="cls-4" d="M1128,742.8V719.5h-62.7c-7.9,0-13.8-1.7-17.8-5.3s-5.9-8.5-5.9-14.6a13.6,13.6,0,0,1,.9-4.8,24.6,24.6,0,0,1,2.6-5.1c1.2-1.8,2.4-3.6,3.6-5.2l4.6-6.1,66.2-88.5a98.3,98.3,0,0,1,10.7-12.7,14,14,0,0,1,10-3.9c12.6,0,19,7.2,19,21.7v96.6h5.3c6.4,0,11.6.9,15.4,2.6s5.8,5.6,5.8,11.5-1.5,8.3-4.7,10.5-7.9,3.3-14.2,3.3h-7.6v23.3c0,6.4-1.4,11.1-4.3,14.2s-6.6,4.7-11.3,4.7a14.3,14.3,0,0,1-11.3-4.8C1129.4,753.7,1128,749,1128,742.8Zm-53.7-51.2H1128V619.1Z" transform="translate(-194.3 -461)"/><path class="cls-6" d="M961.1,830.3l-4.2,36.5a1.9,1.9,0,0,1-.5,1l-20.5,22a1.7,1.7,0,0,1-2.9-1.3l6.2-59.2a2.1,2.1,0,0,1,1-1.4l14-14.2c1.3-.6,10.4,4.7,10,6.1L961.1,830Z" transform="translate(-194.3 -461)"/><path class="cls-4" d="M934.3,892.2a2,2,0,0,1-1.1-.3,3.6,3.6,0,0,1-2.1-3.6l6.3-59.2a3.7,3.7,0,0,1,1.6-2.7l14.1-14.3h.3c.8-.4,1.9-.6,5.6,1.4a34.9,34.9,0,0,1,5.3,3.4c.6.6,2.1,1.9,1.6,3.5l-3,10.3L958.7,867a3.3,3.3,0,0,1-.9,2.1l-20.6,22A3.4,3.4,0,0,1,934.3,892.2Zm6.8-62.6-6.2,58.5L955,866.6l4.2-36.5c0-.2.1-.4.1-.6l2.9-9.6a31.2,31.2,0,0,0-7.3-4.3l-13.6,13.9Z" transform="translate(-194.3 -461)"/><path class="cls-7" d="M894.3,801.4l58.9,6.8a1.2,1.2,0,0,1,.7,2l-17.4,17.3a.8.8,0,0,1-.9.3l-27.2-2.9a1,1,0,0,1-.8-.5l-14.4-21.2A1.2,1.2,0,0,1,894.3,801.4Z" transform="translate(-194.3 -461)"/><path class="cls-4" d="M908.2,826.8a3.2,3.2,0,0,1-2.2-1.3l-14.4-21.2a3,3,0,0,1,0-3.3,2.8,2.8,0,0,1,2.9-1.4l58.9,6.7a2.9,2.9,0,0,1,2.5,2,3.2,3.2,0,0,1-.7,3.2l-17.4,17.3a2.7,2.7,0,0,1-2.4.9l-27.2-2.9Zm-12.6-23.4,13.3,19.7,26.5,2.9,16.1-16.1ZM953,810Z" transform="translate(-194.3 -461)"/><path class="cls-6" d="M959.6,809.3l43.4,5a1.7,1.7,0,0,1,.9,2.9l-18.7,15.9a1.6,1.6,0,0,1-1.3.4l-44.4-5.1,18.7-18.6A1.6,1.6,0,0,1,959.6,809.3Z" transform="translate(-194.3 -461)"/><path class="cls-4" d="M983.7,835.4l-48.3-5.6,21.5-21.4a4,4,0,0,1,2.9-1l43.4,5a3.7,3.7,0,0,1,3,2.5,3.5,3.5,0,0,1-1.1,3.7l-18.7,16A3.9,3.9,0,0,1,983.7,835.4ZM943.5,827l40.5,4.7,18.3-15.6-42.8-4.9Zm59.3-10.9Z" transform="translate(-194.3 -461)"/><path class="cls-8" d="M913.5,849.5c-40,16-101-6-101-6-26-11-46-42-46-42-70-75-183-54-183-54" transform="translate(-194.3 -461)"/><path class="cls-9" d="M211.5,953.7c13.5,8.2,9.5,33,9.5,33C207.5,981.3,211.5,953.7,211.5,953.7Z" transform="translate(-194.3 -461)"/><path class="cls-9" d="M746.7,971c10.4,11.9-.9,34.4-.9,34.4C734.6,996.1,746.7,971,746.7,971Z" transform="translate(-194.3 -461)"/><path class="cls-9" d="M264.5,929.5c37,14,39,77,39,77C267.5,999.5,264.5,929.5,264.5,929.5Z" transform="translate(-194.3 -461)"/><path class="cls-9" d="M434,925.1c23.1,32.2-10,85.8-10,85.8C397.8,985.1,434,925.1,434,925.1Z" transform="translate(-194.3 -461)"/><path class="cls-9" d="M253,970c27.8-2.6,48.5,36.7,48.5,36.7C276.5,1013.4,253,970,253,970Z" transform="translate(-194.3 -461)"/><path class="cls-9" d="M196.4,955.2c26.1,9.8,27.7,54.3,27.7,54.3C198.7,1004.6,196.4,955.2,196.4,955.2Z" transform="translate(-194.3 -461)"/></g></svg>