<svg width="63" height="51" viewBox="0 0 63 51" fill="none" xmlns="http://www.w3.org/2000/svg">
<path d="M58.6617 24.0932C53.3894 13.898 42.9516 7 31 7C19.0484 7 8.60774 13.9028 3.33828 24.0942C3.11588 24.5302 3 25.0119 3 25.5005C3 25.989 3.11588 26.4708 3.33828 26.9068C8.61065 37.102 19.0484 44 31 44C42.9516 44 53.3923 37.0972 58.6617 26.9058C58.8841 26.4698 59 25.9881 59 25.4995C59 25.011 58.8841 24.5292 58.6617 24.0932V24.0932ZM31 39.375C28.2311 39.375 25.5243 38.5612 23.222 37.0366C20.9197 35.512 19.1253 33.3451 18.0657 30.8097C17.006 28.2744 16.7288 25.4846 17.269 22.7931C17.8092 20.1016 19.1425 17.6293 21.1005 15.6889C23.0584 13.7484 25.553 12.427 28.2687 11.8916C30.9845 11.3562 33.7994 11.631 36.3576 12.6812C38.9157 13.7313 41.1023 15.5097 42.6406 17.7915C44.1789 20.0732 45 22.7558 45 25.5C45.0009 27.3223 44.6394 29.127 43.9362 30.8108C43.2329 32.4946 42.2017 34.0245 40.9015 35.3131C39.6013 36.6017 38.0576 37.6237 36.3586 38.3206C34.6597 39.0176 32.8388 39.3759 31 39.375V39.375ZM31 16.25C30.1669 16.2615 29.3392 16.3844 28.5393 16.6152C29.1987 17.5033 29.5151 18.5961 29.4312 19.6956C29.3473 20.795 28.8685 21.8283 28.0819 22.6079C27.2952 23.3876 26.2526 23.862 25.1433 23.9452C24.0339 24.0284 22.9312 23.7148 22.0351 23.0613C21.5249 24.9244 21.617 26.8991 22.2985 28.7076C22.98 30.5161 24.2166 32.0673 25.8342 33.1428C27.4518 34.2183 29.369 34.7639 31.3159 34.703C33.2629 34.642 35.1415 33.9775 36.6874 32.803C38.2333 31.6284 39.3686 30.003 39.9336 28.1555C40.4986 26.308 40.4647 24.3314 39.8368 22.5039C39.2089 20.6765 38.0186 19.0902 36.4334 17.9683C34.8482 16.8464 32.9479 16.2455 31 16.25V16.25Z" fill="#222222"/>
</svg>
