<svg width="63" height="51" viewBox="0 0 63 51" fill="none" xmlns="http://www.w3.org/2000/svg">
<path d="M31.4997 39.8436C24.0332 39.8436 17.9892 33.9956 17.433 26.5847L7.10695 18.5095C5.7495 20.2327 4.50034 22.0545 3.49234 24.0467C3.26716 24.4975 3.14983 24.9954 3.14983 25.5005C3.14983 26.0056 3.26716 26.5035 3.49234 26.9543C8.83059 37.4938 19.3988 44.6248 31.4997 44.6248C34.1486 44.6248 36.7041 44.2264 39.167 43.5829L34.0591 39.5836C33.2155 39.7485 32.3588 39.8355 31.4997 39.8436ZM62.3913 45.6308L51.509 37.1203C54.8147 34.3013 57.5334 30.8453 59.507 26.9533C59.7322 26.5025 59.8496 26.0046 59.8496 25.4995C59.8496 24.9944 59.7322 24.4965 59.507 24.0457C54.1688 13.5062 43.6006 6.3752 31.4997 6.3752C26.4317 6.38141 21.4459 7.67247 16.9979 10.1304L4.47474 0.335942C4.31144 0.207355 4.12469 0.11259 3.92518 0.0570632C3.72567 0.00153624 3.5173 -0.0136648 3.31198 0.0123288C3.10666 0.0383223 2.90841 0.105001 2.72857 0.208554C2.54872 0.312108 2.39081 0.450506 2.26384 0.615841L0.33152 3.13294C0.0751885 3.46662 -0.0396722 3.88965 0.0122004 4.30901C0.064073 4.72837 0.278431 5.1097 0.608129 5.36915L58.5246 50.6641C58.6879 50.7926 58.8747 50.8874 59.0742 50.9429C59.2737 50.9985 59.4821 51.0137 59.6874 50.9877C59.8927 50.9617 60.091 50.895 60.2708 50.7914C60.4507 50.6879 60.6086 50.5495 60.7355 50.3842L62.6688 47.8671C62.9251 47.5333 63.0398 47.1101 62.9877 46.6908C62.9357 46.2714 62.7211 45.8902 62.3913 45.6308ZM44.3064 31.4865L40.4378 28.4604C40.7636 27.5076 40.9364 26.5081 40.9497 25.5C40.9689 24.0241 40.6457 22.5641 40.0062 21.2375C39.3667 19.9109 38.4286 18.7545 37.2673 17.8613C36.106 16.968 34.7538 16.3628 33.3195 16.0943C31.8851 15.8258 30.4085 15.9014 29.0082 16.3151C29.6018 17.129 29.9229 18.1135 29.9247 19.1251C29.91 19.4617 29.8592 19.7957 29.7731 20.1211L22.5271 14.4544C25.0442 12.326 28.2195 11.1588 31.4997 11.1564C33.3615 11.1553 35.2052 11.5256 36.9254 12.2461C38.6457 12.9666 40.2087 14.0231 41.5252 15.3552C42.8417 16.6873 43.8858 18.269 44.5977 20.0097C45.3097 21.7504 45.6757 23.6161 45.6746 25.5C45.6746 27.6545 45.1539 29.6626 44.3064 31.4875V31.4865Z" fill="#222222"/>
</svg>
