<svg id="Camada_1" data-name="Camada 1" xmlns="http://www.w3.org/2000/svg" viewBox="0 0 522.9 323.5"><defs><style>.cls-1{fill:#c3c6c4;}.cls-2{fill:#eeeded;}.cls-3,.cls-5{fill:#343434;}.cls-4{fill:#c7c6c6;}.cls-11,.cls-5,.cls-6,.cls-7{stroke:#343434;}.cls-10,.cls-11,.cls-12,.cls-5,.cls-6,.cls-7{stroke-miterlimit:10;}.cls-6{fill:#ffc629;}.cls-10,.cls-11,.cls-6,.cls-7{stroke-linecap:round;}.cls-6,.cls-7{stroke-width:2px;}.cls-10,.cls-12,.cls-7{fill:none;}.cls-8{fill:#ff4438;}.cls-9{fill:#79a3dc;}.cls-10{stroke:#fff;}.cls-10,.cls-12{stroke-width:5px;}.cls-11{fill:#00b189;stroke-width:4px;}.cls-12{stroke:#c7c6c6;}</style></defs><title>formH</title><path class="cls-1" d="M380.1,264.7h-1a31.1,31.1,0,0,0-17.1,6.5c-2.5,1.9-5.3,4.2-8.2,6.8l80-.3c-10.7-4-30.3-10.6-48.9-12.8A25.7,25.7,0,0,0,380.1,264.7Z" transform="translate(-30 -76)"/><path class="cls-2" d="M276.7,258.9l-2.2,1.8,104.5.4a34.3,34.3,0,0,1,6.4.1c27.6,3.3,57.6,16.3,57.9,16.4h1.4c3.8,0,24.2-1.1,48.2-23.7s43-58.9,54.9-106.9l-213.1-.7c-1.4,29.3-8.4,53.4-21.4,73.7C302,237.8,288,249.5,276.7,258.9Z" transform="translate(-30 -76)"/><path class="cls-2" d="M365.6,264.7l-157.2-.5c-19.6,0-38.4,6.6-51.6,18.1-15.8,13.9-33.1,32.8-41.5,68.3-5.8,24.4-8.4,30.7-18.6,44.5l-.6.7,175.2-.3a24.6,24.6,0,0,0,23.9-19.2c13.3-61.2,46.2-93.9,64.6-108A31.3,31.3,0,0,1,365.6,264.7Z" transform="translate(-30 -76)"/><path class="cls-3" d="M331.1,144.5c-2.6,66.4-33.9,92.5-56.7,111.6l-5.5,4.6-60.5-.2c-20.5,0-40.2,7-54,19.1-16.3,14.2-34,33.7-42.6,70.1-5.7,24.1-8.1,29.8-18,43.2a24.1,24.1,0,0,1-2.7,2.3l-1.5,1.1L86,399.5l185.3-.3a28.3,28.3,0,0,0,27.5-22.1c10.4-48.1,33.1-78.2,51-95.4l94.9-.3c11.8,0,31.3-6.5,50.7-24.7,25.6-24,45.4-63.8,57.5-114H331.1ZM295.2,376.3a24.6,24.6,0,0,1-23.9,19.2l-175.2.3.6-.7c10.2-13.8,12.8-20.1,18.6-44.5,8.4-35.5,25.7-54.4,41.5-68.3,13.2-11.5,32-18.1,51.6-18.1l157.2.5a31.3,31.3,0,0,0-5.8,3.6C341.4,282.4,308.5,315.1,295.2,376.3ZM353.8,278c2.9-2.6,5.7-4.9,8.2-6.8a31.1,31.1,0,0,1,17.1-6.5h1a25.7,25.7,0,0,1,4.8.2c18.6,2.2,38.2,8.8,48.9,12.8Zm194-130.9c-11.9,48-30.4,84-54.9,106.9s-44.4,23.7-48.2,23.7h-1.4c-.3-.1-30.3-13.1-57.9-16.4a34.3,34.3,0,0,0-6.4-.1l-104.5-.4,2.2-1.8c11.3-9.4,25.3-21.1,36.6-38.8,13-20.3,20-44.4,21.4-73.7Z" transform="translate(-30 -76)"/><path class="cls-4" d="M349.5,169.8l161.7,1.4c-2.9,19.1-10,29.5-16.1,40.3H338.5C346.6,196.1,349.5,169.8,349.5,169.8Z" transform="translate(-30 -76)"/><path class="cls-3" d="M419.6,144.6v22c0,12.4-7.4,22.5-16.4,22.5H325.9l9.7-44.5Z" transform="translate(-30 -76)"/><path class="cls-2" d="M395.1,79.1H265.8c-9,0-16.3,10.1-16.3,22.4v90c0,1.8.8,2.9,1.6,3.2s1.1.1,1.6-.5l20.6-23.7a4.9,4.9,0,0,1,3.6-1.7H395.1c9.1,0,16.4-10.1,16.4-22.5V101.5C411.5,89.2,404.2,79.1,395.1,79.1Z" transform="translate(-30 -76)"/><path class="cls-3" d="M395.1,76H265.8c-10.7,0-19.5,11.5-19.5,25.5v90a6.5,6.5,0,0,0,3.7,6.2l1.6.2a4.9,4.9,0,0,0,3.5-1.7l20.6-23.7a1.6,1.6,0,0,1,1.2-.6H395.1c10.8,0,19.5-11.5,19.5-25.6V101.5C414.6,87.5,405.9,76,395.1,76Zm16.4,70.3c0,12.4-7.3,22.5-16.4,22.5H276.9a4.9,4.9,0,0,0-3.6,1.7l-20.6,23.7c-.5.6-1,.8-1.6.5s-1.6-1.4-1.6-3.2v-90c0-12.3,7.3-22.4,16.3-22.4H395.1c9.1,0,16.4,10.1,16.4,22.4Z" transform="translate(-30 -76)"/><path class="cls-2" d="M42.6,200.2h80.3c5.6,0,10.2,6.3,10.2,14v55.9a2.3,2.3,0,0,1-1,2,.9.9,0,0,1-1-.4L118.2,257a2.7,2.7,0,0,0-2.2-1.1H42.6c-5.6,0-10.2-6.2-10.2-13.9V214.2C32.4,206.5,37,200.2,42.6,200.2Z" transform="translate(-30 -76)"/><path class="cls-5" d="M30.5,214.2V242c0,8.7,5.4,15.8,12.1,15.8H116a1.2,1.2,0,0,1,.8.4L129.6,273a2.8,2.8,0,0,0,2.2,1h.9a3.9,3.9,0,0,0,2.3-3.8V214.2c0-8.8-5.4-15.9-12.1-15.9H42.6C35.9,198.3,30.5,205.4,30.5,214.2Zm1.9,0c0-7.7,4.6-14,10.2-14h80.3c5.6,0,10.2,6.3,10.2,14v55.9a2.3,2.3,0,0,1-1,2,.9.9,0,0,1-1-.4L118.2,257a2.7,2.7,0,0,0-2.2-1.1H42.6c-5.6,0-10.2-6.2-10.2-13.9Z" transform="translate(-30 -76)"/><path class="cls-2" d="M416,298.6h91.5c6.4,0,11.6,7.1,11.6,15.8v63.7a2.4,2.4,0,0,1-1.1,2.3c-.4.2-.8,0-1.2-.4l-14.6-16.8a3.3,3.3,0,0,0-2.5-1.2H416c-6.4,0-11.6-7.1-11.6-15.9V314.4C404.4,305.7,409.6,298.6,416,298.6Z" transform="translate(-30 -76)"/><path class="cls-5" d="M402.2,314.4v31.7c0,10,6.2,18.1,13.8,18.1h83.7a1.4,1.4,0,0,1,.9.5l14.6,16.8a3.2,3.2,0,0,0,2.5,1.2l1-.2a4.5,4.5,0,0,0,2.6-4.4V314.4c0-9.9-6.1-18-13.8-18H416C408.4,296.4,402.2,304.5,402.2,314.4Zm2.2,0c0-8.7,5.2-15.8,11.6-15.8h91.5c6.4,0,11.6,7.1,11.6,15.8v63.7a2.4,2.4,0,0,1-1.1,2.3c-.4.2-.8,0-1.2-.4l-14.6-16.8a3.3,3.3,0,0,0-2.5-1.2H416c-6.4,0-11.6-7.1-11.6-15.9Z" transform="translate(-30 -76)"/><circle class="cls-6" cx="431.5" cy="252.5" r="22"/><path class="cls-7" d="M461.1,319.8a3.5,3.5,0,0,1-6.9,0" transform="translate(-30 -76)"/><path class="cls-7" d="M469.2,319.8a3.4,3.4,0,1,1-6.8,0" transform="translate(-30 -76)"/><path class="cls-7" d="M476.2,322.1a20.9,20.9,0,0,1-29.6,0" transform="translate(-30 -76)"/><rect class="cls-8" x="203.5" y="197.7" width="11" height="42.44" rx="3.8" transform="translate(-99.7 24.9) rotate(-23.4)"/><path class="cls-8" d="M191.2,191.7l1.3,3.1a3.8,3.8,0,0,0,5.1,1.9l3-1.3a3.7,3.7,0,0,0,2-5l-1.3-3.1a3.9,3.9,0,0,0-5-2l-1.6.7-1.5.7A3.8,3.8,0,0,0,191.2,191.7Z" transform="translate(-30 -76)"/><circle class="cls-9" cx="150.3" cy="75.6" r="21.2"/><path class="cls-8" d="M211,137.9a34,34,0,1,0-17.7,44.7A34,34,0,0,0,211,137.9Zm-20.9,36.5a24.8,24.8,0,1,1,13-32.7A24.8,24.8,0,0,1,190.1,174.4Z" transform="translate(-30 -76)"/><path class="cls-3" d="M164.8,116.8a37.7,37.7,0,0,0,22.7,71.5,7.2,7.2,0,0,1,4.2-5l1.6-.7A34,34,0,1,1,211,137.9a34,34,0,0,1-17.7,44.7l1.5-.6a7.3,7.3,0,0,1,6.6.3,37.7,37.7,0,0,0-36.6-65.5Z" transform="translate(-30 -76)"/><path class="cls-3" d="M170.4,128.8a24.8,24.8,0,1,0,32.7,12.9A24.9,24.9,0,0,0,170.4,128.8Zm18.3,42.3a21.3,21.3,0,1,1,11-27.9A21.2,21.2,0,0,1,188.7,171.1Z" transform="translate(-30 -76)"/><path class="cls-3" d="M196.3,185.3a3.9,3.9,0,0,1,5,2l1.3,3.1a3.7,3.7,0,0,1-2,5,7.8,7.8,0,0,1,5.2-.3,7.4,7.4,0,0,0,.2-6.2l-1.4-3a7.1,7.1,0,0,0-3.2-3.6,39.5,39.5,0,0,1-6.7,3.7Z" transform="translate(-30 -76)"/><path class="cls-3" d="M192.5,194.8l-1.3-3.1a3.8,3.8,0,0,1,2-5l1.5-.7a37.7,37.7,0,0,1-7.2,2.3,7.3,7.3,0,0,0,.4,4.8l1.3,3.1a7.6,7.6,0,0,0,4.6,4.2,7.2,7.2,0,0,1,3.8-3.7A3.8,3.8,0,0,1,192.5,194.8Z" transform="translate(-30 -76)"/><path class="cls-3" d="M194.8,182l-1.5.6-1.6.7a7.2,7.2,0,0,0-4.2,5,37.7,37.7,0,0,0,7.2-2.3,39.5,39.5,0,0,0,6.7-3.7A7.3,7.3,0,0,0,194.8,182Z" transform="translate(-30 -76)"/><path class="cls-3" d="M207.1,200.7l13.8,32a3.8,3.8,0,0,1-2,5l-3.1,1.3a3.8,3.8,0,0,1-5-1.9l-13.8-32a3.9,3.9,0,0,1,2-5,7.8,7.8,0,0,1-5.2.3,7.4,7.4,0,0,0-.1,6.2l13.8,31.9a7.5,7.5,0,0,0,9.8,3.9l3.1-1.3a7.5,7.5,0,0,0,3.9-9.8l-13.8-32a7.8,7.8,0,0,0-4.7-4.2,7.4,7.4,0,0,1-3.7,3.7A3.7,3.7,0,0,1,207.1,200.7Z" transform="translate(-30 -76)"/><path class="cls-3" d="M197.6,196.7a7.2,7.2,0,0,0-3.8,3.7,7.8,7.8,0,0,0,5.2-.3l3.1-1.3a7.4,7.4,0,0,0,3.7-3.7,7.8,7.8,0,0,0-5.2.3Z" transform="translate(-30 -76)"/><path class="cls-10" d="M196,155.5a12,12,0,0,1-1.3,3.1" transform="translate(-30 -76)"/><path class="cls-10" d="M180.5,135a16.1,16.1,0,0,1,16,14.5" transform="translate(-30 -76)"/><rect class="cls-4" x="23.2" y="134.7" width="65.1" height="7.32"/><rect class="cls-4" x="12.2" y="148.6" width="76.1" height="7.32"/><rect class="cls-4" x="12.2" y="163.3" width="38" height="7.32"/><polygon class="cls-11" points="326.2 16.6 294.2 48.5 275.2 29.5 262.8 41.8 281.9 60.9 294.2 73.3 338.5 29 326.2 16.6"/><polygon class="cls-4" points="447.9 160.4 293.2 158.9 302.4 146.4 456.3 146.4 447.9 160.4"/><polygon class="cls-4" points="428.8 183.6 274.1 180 283.4 167.7 437.4 169.8 428.8 183.6"/><line class="cls-12" x1="133.3" y1="210.5" x2="284.8" y2="210.5"/><line class="cls-12" x1="119.8" y1="227.3" x2="271.2" y2="227.3"/><line class="cls-12" x1="106.2" y1="244.1" x2="257.7" y2="244.1"/><line class="cls-12" x1="98.5" y1="261" x2="250" y2="261"/></svg>