<svg xmlns="http://www.w3.org/2000/svg" xmlns:xlink="http://www.w3.org/1999/xlink" width="1000" zoomAndPan="magnify" viewBox="0 0 750 749.999995" height="1000" preserveAspectRatio="xMidYMid meet" version="1.0"><defs><clipPath id="89aac77eb8"><path d="M 33.199219 267 L 482 267 L 482 716.449219 L 33.199219 716.449219 Z M 33.199219 267 " clip-rule="nonzero"/></clipPath><clipPath id="405f77b44f"><path d="M 382 33.199219 L 716.449219 33.199219 L 716.449219 368 L 382 368 Z M 382 33.199219 " clip-rule="nonzero"/></clipPath></defs><g clip-path="url(#89aac77eb8)"><path fill="#10b981" d="M 482 520.1875 L 482 463.964844 L 415.105469 453.027344 C 411.160156 437.191406 404.9375 422.308594 396.726562 408.644531 L 435.734375 353.03125 L 395.984375 313.308594 L 341.140625 352.765625 C 327.421875 344.476562 312.460938 338.148438 296.492188 334.203125 L 284.839844 267.597656 L 228.5625 267.597656 L 217.757812 333.988281 C 201.761719 337.882812 186.71875 344.132812 173.003906 352.34375 L 118.316406 313.28125 L 78.539062 353.003906 L 117.019531 408.035156 C 108.730469 421.832031 102.375 436.847656 98.375 452.921875 L 32.300781 463.914062 L 32.300781 520.136719 L 98.296875 531.816406 C 102.265625 547.863281 108.625 562.933594 116.964844 576.730469 L 77.929688 631.28125 L 117.679688 671.058594 L 172.789062 632.476562 C 186.589844 640.765625 201.578125 647.015625 217.546875 650.933594 L 228.5625 717.351562 L 284.8125 717.351562 L 296.621094 650.746094 C 312.511719 646.75 327.5 640.394531 341.140625 632.105469 L 396.621094 671.058594 L 436.371094 631.28125 L 396.78125 576.304688 C 404.988281 562.613281 411.214844 547.730469 415.105469 531.839844 Z M 257.164062 570.929688 C 213.839844 570.929688 178.75 535.839844 178.75 492.515625 C 178.75 449.214844 213.839844 414.125 257.164062 414.125 C 300.464844 414.125 335.550781 449.214844 335.550781 492.515625 C 335.550781 535.839844 300.464844 570.929688 257.164062 570.929688 Z M 257.164062 570.929688 " fill-opacity="1" fill-rule="nonzero"/></g><g clip-path="url(#405f77b44f)"><path fill="#10b981" d="M 699.980469 286.320312 L 716.53125 246.675781 L 672.570312 219.1875 C 674.476562 206.820312 674.476562 194.507812 672.726562 182.402344 L 716.636719 154.757812 L 700.296875 114.953125 L 649.953125 126.632812 C 642.777344 116.699219 634.011719 107.882812 623.949219 100.308594 L 635.386719 49.9375 L 595.691406 33.332031 L 568.492188 76.949219 C 556.046875 74.992188 543.625 74.9375 531.46875 76.683594 L 504.433594 33.015625 L 464.628906 49.25 L 475.539062 99.460938 C 465.609375 106.691406 456.710938 115.480469 449.109375 125.625 L 399.242188 113.839844 L 382.664062 153.484375 L 425.777344 181.316406 C 423.84375 193.765625 423.871094 206.210938 425.671875 218.472656 L 382.082031 245.40625 L 398.367188 285.261719 L 448.605469 274.296875 C 455.890625 284.175781 464.601562 292.996094 474.746094 300.515625 L 462.960938 350.648438 L 502.605469 367.199219 L 530.621094 323.714844 C 542.992188 325.570312 555.464844 325.515625 567.539062 323.660156 L 595.1875 367.542969 L 634.9375 351.203125 L 623.257812 300.78125 C 633.058594 293.550781 641.851562 284.839844 649.292969 274.855469 Z M 526.332031 255.734375 C 495.824219 242.96875 481.390625 207.855469 494.15625 177.238281 C 506.921875 146.730469 542.089844 132.351562 572.625 145.117188 C 603.160156 157.90625 617.566406 193.023438 604.800781 223.585938 C 592.035156 254.117188 556.894531 268.5 526.332031 255.734375 Z M 526.332031 255.734375 " fill-opacity="1" fill-rule="nonzero"/></g></svg>